<svg xmlns="http://www.w3.org/2000/svg" viewBox="0 0 64 64" id="hijab-businesswoman">
  <g>
    <path fill="#ffab91" d="M36 35.243v2.802l14.88 4.923a4 4 0 0 1 2.713 4.293L52.11 59.124a1 1 0 0 1-.992.876H12.883a1 1 0 0 1-.992-.876l-1.483-11.86a4 4 0 0 1 2.716-4.294l14.85-4.898.026-2.829Z"></path>
    <path fill="#1e243a" d="m50.88 42.968-11.103-3.674.233 6.196L32 48.3l-8.01-2.81.233-6.181-11.099 3.661a4 4 0 0 0-2.716 4.295l1.483 11.86a1 1 0 0 0 .992.876h38.234a1 1 0 0 0 .992-.876l1.483-11.863a4 4 0 0 0-2.712-4.294Z"></path>
    <path fill="#cbcfd1" d="m39.581 39.145-1.107-.255H25.526l-1.107.255s-1.24 7.39 0 12.533A18.173 18.173 0 0 0 29.075 60h5.85a18.173 18.173 0 0 0 4.656-8.322c1.24-5.142 0-12.533 0-12.533Z"></path>
    <path fill="#343d56" d="m26.006 38.72-5.495 1.813-1.998 3.837 3.082 2.628-1.477 3.85L29.075 60c-2.419-3.992-3.657-14.325-3.07-21.28zm16.399 8.278 3.082-2.628-2.005-3.85-5.49-1.816c.592 6.954-.646 17.3-3.067 21.296l8.957-9.152z"></path>
    <path fill="#90a4ae" d="M38.464 33.786H25.536l-.75 5.25A32.63 32.63 0 0 0 32 40.24a32.63 32.63 0 0 0 7.214-1.205Z"></path>
    <path fill="#90a4ae" d="m26.405 36.791-2.537 13.655s0 1.608 2.25 1.929c.958.137 1.79-.872 2.892-.964a12.161 12.161 0 0 1 3.295.321l-2.652-14.946s-2.089-2.652-3.248.005Z"></path>
    <path fill="#ba6e5a" d="M21 20c0-6.075 1-11 11-11s11 4.925 11 11l-3.21 10.273A8.161 8.161 0 0 1 32 36a8.161 8.161 0 0 1-7.79-5.727Z"></path>
    <path fill="#212121" d="M32 9c-8 .178-10.916 8.491-10.916 8.491S27.625 12.196 32 12.196s10.916 5.295 10.916 5.295S40 9.178 32 9Z"></path>
    <path fill="#90a4ae" d="M45.487 14.768C45.278 7.375 36.215 4 32 4S18.721 7.375 18.512 14.768s.387 9.963 3.917 15.375c3.214 4.928 7.178 5.781 7.178 5.781a27.778 27.778 0 0 1-5.813-7.71 26.285 26.285 0 0 1-2.115-8.143A10.9 10.9 0 0 1 32 9a10.9 10.9 0 0 1 10.321 11.071 26.285 26.285 0 0 1-2.115 8.143 27.778 27.778 0 0 1-5.813 7.71s3.964-.853 7.178-5.781c3.53-5.412 4.125-7.982 3.916-15.375Z"></path>
  </g>
</svg>
